<svg aria-hidden="true" style="width:0;height:0;position:absolute;overflow:hidden" xmlns="http://www.w3.org/2000/svg"><defs><symbol id="icon-github" viewBox="0 0 32 32"><path fill="#fff" style="fill:var(--color1,#fff)" d="M16 2.996A13.335 13.335 0 0 0 4.592 23.232a13.339 13.339 0 0 0 7.191 5.748c.667.117.917-.283.917-.633 0-.317-.017-1.367-.017-2.483-3.35.617-4.217-.817-4.483-1.567a4.845 4.845 0 0 0-1.367-1.883c-.467-.25-1.133-.867-.017-.883a2.677 2.677 0 0 1 2.05 1.366 2.847 2.847 0 0 0 3.883 1.1c.058-.678.36-1.312.85-1.783-2.967-.333-6.067-1.483-6.067-6.583a5.185 5.185 0 0 1 1.367-3.583 4.79 4.79 0 0 1 .133-3.533s1.117-.35 3.667 1.367c2.182-.6 4.485-.6 6.667 0 2.55-1.733 3.667-1.367 3.667-1.367a4.79 4.79 0 0 1 .133 3.533 5.159 5.159 0 0 1 1.367 3.583c0 5.117-3.117 6.25-6.083 6.583a3.14 3.14 0 0 1 .9 2.466c0 1.783-.017 3.217-.017 3.667 0 .35.25.767.917.633a13.346 13.346 0 0 0 8.909-14.796A13.338 13.338 0 0 0 16 2.997z"/></symbol><symbol id="icon-Icon-Close" viewBox="0 0 32 32"><path d="M26.414 7 7 26.414 5.586 25 25 5.586 26.414 7z"/><path d="M7 5.586 26.414 25 25 26.414 5.586 7 7 5.586z"/></symbol></defs></svg>