<svg aria-hidden="true" style="width:0;height:0;position:absolute;overflow:hidden" xmlns="http://www.w3.org/2000/svg"><defs><symbol id="icon-arrow-left" viewBox="0 0 32 32"><path stroke-linejoin="round" stroke-linecap="round" stroke-width="2.667" d="M25.333 16H6.666M16 25.333 6.667 16 16 6.667"/></symbol><symbol id="icon-arrow-right" viewBox="0 0 32 32"><path stroke-linejoin="round" stroke-linecap="round" stroke-width="2.667" d="M6.667 16h18.667M16 25.333 25.333 16 16 6.667"/></symbol><symbol id="icon-favorite" viewBox="0 0 32 32"><path fill="#ff6b08" style="fill:var(--color1,#ff6b08)" d="m16 30.583-2.24-2.24C5.44 20.983 0 16.023 0 9.943c0-4.96 3.84-8.8 8.8-8.8 2.72 0 5.44 1.28 7.2 3.36 1.76-2.08 4.48-3.36 7.2-3.36 4.96 0 8.8 3.84 8.8 8.8 0 6.08-5.44 11.04-13.76 18.4L16 30.583z"/></symbol><symbol id="icon-film" viewBox="0 0 32 32"><path fill="none" stroke="#fff" style="stroke:var(--color2,#fff)" stroke-linejoin="round" stroke-linecap="round" stroke-width="2.667" d="M26.427 2.667H5.574a2.907 2.907 0 0 0-2.907 2.907v20.853a2.907 2.907 0 0 0 2.907 2.907h20.853a2.907 2.907 0 0 0 2.907-2.907V5.574a2.907 2.907 0 0 0-2.907-2.907zM9.333 2.667v26.667M22.667 2.667v26.667M2.667 16h26.667M2.667 9.333h6.667M2.667 22.667h6.667M22.667 22.667h6.667M22.667 9.333h6.667"/></symbol><symbol id="icon-search-black" viewBox="0 0 32 32"><path d="M13.44 1.92C7.437 1.92 2.56 6.798 2.56 12.8s4.878 10.88 10.88 10.88c2.375 0 4.57-.765 6.36-2.06l8.42 8.4 1.8-1.8-8.32-8.34a10.832 10.832 0 0 0 2.62-7.08c0-6.003-4.878-10.88-10.88-10.88zm0 1.28c5.31 0 9.6 4.29 9.6 9.6s-4.29 9.6-9.6 9.6-9.6-4.29-9.6-9.6 4.29-9.6 9.6-9.6z"/></symbol><symbol id="icon-search-white" viewBox="0 0 32 32"><path fill="none" stroke="#fff" style="stroke:var(--color2,#fff)" stroke-linejoin="round" stroke-linecap="round" stroke-width="2.667" d="M14.667 25.333c5.891 0 10.667-4.776 10.667-10.667S20.558 3.999 14.667 3.999 4 8.775 4 14.666s4.776 10.667 10.667 10.667zM28 28l-5.8-5.8"/></symbol><symbol id="icon-points" viewBox="0 0 32 32"><path d="M5.175 12.8c.85 0 1.506.244 1.969.731.463.475.694 1.075.694 1.8 0 .712-.231 1.306-.694 1.781-.463.462-1.119.694-1.969.694-.813 0-1.456-.231-1.931-.694s-.712-1.056-.712-1.781c0-.725.231-1.325.694-1.8.462-.488 1.113-.731 1.95-.731zm10.725 0c.85 0 1.506.244 1.969.731.463.475.694 1.075.694 1.8 0 .712-.231 1.306-.694 1.781-.462.462-1.119.694-1.969.694-.813 0-1.456-.231-1.931-.694s-.712-1.056-.712-1.781c0-.725.231-1.325.694-1.8.463-.488 1.112-.731 1.95-.731zm10.725 0c.85 0 1.506.244 1.969.731.462.475.694 1.075.694 1.8 0 .712-.231 1.306-.694 1.781-.462.462-1.119.694-1.969.694-.812 0-1.456-.231-1.931-.694s-.712-1.056-.712-1.781c0-.725.231-1.325.694-1.8.462-.488 1.112-.731 1.95-.731z"/></symbol><symbol id="icon-moon-o" viewBox="0 0 23 28"><path fill="#FF6B08" d="M19.719 20.359c-.562.094-1.141.141-1.719.141-5.797 0-10.5-4.703-10.5-10.5 0-1.984.578-3.922 1.625-5.578A9.952 9.952 0 0 0 2 14c0 5.516 4.484 10 10 10 3.016 0 5.844-1.375 7.719-3.641zm3.172-1.328A12.035 12.035 0 0 1 12 26C5.391 26 0 20.609 0 14A11.95 11.95 0 0 1 11.547 2.016a.976.976 0 0 1 .953.609c.172.391.063.844-.234 1.125A8.372 8.372 0 0 0 9.5 10c0 4.688 3.813 8.5 8.5 8.5a8.352 8.352 0 0 0 3.563-.797 1 1 0 0 1 1.328 1.328z"/></symbol><symbol id="icon-sun" viewBox="0 0 32 32"><path fill="#FF6B08" d="M16 26a2 2 0 0 1 2 2v2a2 2 0 1 1-4 0v-2a2 2 0 0 1 2-2zm0-20a2 2 0 0 1-2-2V2a2 2 0 1 1 4 0v2a2 2 0 0 1-2 2zm14 8a2 2 0 1 1 0 4h-2a2 2 0 1 1 0-4h2zM6 16a2 2 0 0 1-2 2H2a2 2 0 1 1 0-4h2a2 2 0 0 1 2 2zm19.899 7.071 1.414 1.414a2 2 0 1 1-2.828 2.828l-1.414-1.414a2 2 0 1 1 2.828-2.828zM6.101 8.929 4.687 7.515a2 2 0 1 1 2.828-2.828l1.414 1.414a2 2 0 1 1-2.828 2.828zm19.798 0a2 2 0 1 1-2.828-2.828l1.414-1.414a2 2 0 1 1 2.828 2.828l-1.414 1.414zM6.101 23.071a2 2 0 1 1 2.828 2.828l-1.414 1.414a2 2 0 1 1-2.828-2.828l1.414-1.414zM16 8a8 8 0 1 0 0 16 8 8 0 0 0 0-16zm0 13a5 5 0 1 1 .001-10.001A5 5 0 0 1 16 21z"/></symbol></defs></svg>