<svg aria-hidden="true" style="position: absolute; width: 0; height: 0; overflow: hidden;" version="1.1" xmlns="http://www.w3.org/2000/svg" xmlns:xlink="http://www.w3.org/1999/xlink">
<defs>
<symbol id="icon-send" viewBox="0 0 32 32">
<path d="M32 0l-32 18 10.227 3.787 15.773-14.787-11.997 16.187 0.009 0.003-0.012-0.003v8.813l5.735-6.691 7.267 2.691 4.999-28z"></path>
</symbol>
<symbol id="icon-close" viewBox="0 0 32 32">
<path d="M32 3.223l-3.223-3.223-12.777 12.777-12.777-12.777-3.223 3.223 12.777 12.777-12.777 12.777 3.223 3.223 12.777-12.777 12.777 12.777 3.223-3.223-12.777-12.777 12.777-12.777z"></path>
</symbol>
<symbol id="icon-name" viewBox="0 0 32 32">
<path d="M16 16c4.418 0 8-3.582 8-8s-3.582-8-8-8v0c-4.418 0-8 3.582-8 8s3.582 8 8 8v0zM16 20c-5.339 0-16 2.68-16 8v2c0 1.099 0.901 2 2 2h28c1.099 0 2-0.901 2-2v-2c0-5.32-10.661-8-16-8z"></path>
</symbol>
<symbol id="icon-tel" viewBox="0 0 32 32">
<path d="M27.419 20.853l-4.201-0.48c-0.116-0.014-0.25-0.023-0.385-0.023-0.909 0-1.732 0.369-2.328 0.964l-3.045 3.045c-4.718-2.435-8.467-6.185-10.835-10.764l-0.065-0.139 3.063-3.056c0.596-0.596 0.964-1.419 0.964-2.328 0-0.136-0.008-0.27-0.024-0.401l0.002 0.016-0.48-4.169c-0.199-1.655-1.595-2.926-3.287-2.926-0.001 0-0.003 0-0.004 0h-2.861c-1.87-0.002-3.424 1.552-3.31 3.422 0.878 14.126 12.176 25.406 26.286 26.283 1.867 0.114 3.424-1.44 3.424-3.31v-2.862c0-0.005 0-0.010 0-0.016 0-1.681-1.266-3.067-2.897-3.256l-0.015-0.001z"></path>
</symbol>
<symbol id="icon-mail" viewBox="0 0 32 32">
<path d="M28 4h-24c-1.65 0-2.986 1.35-2.986 3l-0.014 18c0 1.65 1.35 3 3 3h24c1.65 0 3-1.35 3-3v-18c0-1.65-1.35-3-3-3zM27.4 10.376l-10.604 6.628c-0.226 0.141-0.501 0.225-0.795 0.225s-0.569-0.084-0.801-0.229l0.006 0.004-10.606-6.63c-0.378-0.226-0.627-0.632-0.627-1.097 0-0.704 0.57-1.274 1.274-1.274 0.262 0 0.505 0.079 0.707 0.214l-0.005-0.003 10.050 6.286 10.050-6.286c0.198-0.132 0.441-0.211 0.703-0.211 0.704 0 1.274 0.57 1.274 1.274 0 0.465-0.249 0.871-0.621 1.094l-0.006 0.003z"></path>
</symbol>
<symbol id="icon-choose" viewBox="0 0 32 32">
<path stroke-linejoin="miter" stroke-linecap="butt" stroke-miterlimit="4" stroke-width="0.4923" d="M4.817 15.39l-0.17-0.162-0.17 0.16-2.373 2.25 0.187 0.18 8.775 8.369 0.17-0.162 18.658-17.799-0.187-0.177-2.341-2.233-0.17 0.162-16.13 15.375-6.25-5.962z"></path>
</symbol>
<symbol id="password" viewBox="0 0 32 32">
<path d="M153.976,73.236h-3.308V49.115C150.669,22.033,128.634,0,101.549,0C74.465,0,52.43,22.033,52.43,49.115v24.121H49.12 c-9.649,0-17.5,7.851-17.5,17.5v94.859c0,9.649,7.851,17.5,17.5,17.5h104.856c9.649,0,17.5-7.851,17.5-17.5V90.736 C171.476,81.087,163.626,73.236,153.976,73.236z M67.43,49.115C67.43,30.304,82.736,15,101.549,15 c18.813,0,34.119,15.304,34.119,34.115v24.121H67.43V49.115z M156.476,185.596c0,1.355-1.145,2.5-2.5,2.5H49.12 c-1.355,0-2.5-1.145-2.5-2.5V90.736c0-1.355,1.145-2.5,2.5-2.5H59.93h83.238h10.808c1.355,0,2.5,1.145,2.5,2.5V185.596z"></path>
	<path d="M101.547,116.309c-4.142,0-7.5,3.357-7.5,7.5v28.715c0,4.143,3.358,7.5,7.5,7.5c4.142,0,7.5-3.357,7.5-7.5v-28.715 C109.047,119.666,105.689,116.309,101.547,116.309z"></path>
</symbol>
</defs>
</svg>
