<svg aria-hidden="true" style="position: absolute; width: 0; height: 0; overflow: hidden;" version="1.1" xmlns="http://www.w3.org/2000/svg" xmlns:xlink="http://www.w3.org/1999/xlink">
<defs>
<symbol id="icon-github" viewBox="0 0 32 32">
<path fill="#fff" style="fill: var(--color1, #fff)" d="M16 2.996c-3.166 0-6.229 1.127-8.64 3.178s-4.014 4.894-4.521 8.020c-0.507 3.125 0.114 6.329 1.753 9.038s4.188 4.746 7.191 5.748c0.667 0.117 0.917-0.283 0.917-0.633 0-0.317-0.017-1.367-0.017-2.483-3.35 0.617-4.217-0.817-4.483-1.567-0.296-0.729-0.765-1.376-1.367-1.883-0.467-0.25-1.133-0.867-0.017-0.883 0.426 0.046 0.835 0.195 1.192 0.432s0.651 0.558 0.858 0.934c0.182 0.328 0.428 0.616 0.722 0.849s0.631 0.405 0.992 0.507 0.738 0.132 1.11 0.088c0.372-0.044 0.732-0.161 1.059-0.344 0.058-0.678 0.36-1.312 0.85-1.783-2.967-0.333-6.067-1.483-6.067-6.583-0.019-1.325 0.47-2.607 1.367-3.583-0.408-1.152-0.36-2.416 0.133-3.533 0 0 1.117-0.35 3.667 1.367 2.182-0.6 4.485-0.6 6.667 0 2.55-1.733 3.667-1.367 3.667-1.367 0.493 1.118 0.541 2.382 0.133 3.533 0.899 0.974 1.389 2.258 1.367 3.583 0 5.117-3.117 6.25-6.083 6.583 0.318 0.322 0.563 0.71 0.719 1.135s0.217 0.88 0.181 1.331c0 1.783-0.017 3.217-0.017 3.667 0 0.35 0.25 0.767 0.917 0.633 2.998-1.010 5.54-3.052 7.172-5.762s2.247-5.912 1.737-9.034c-0.511-3.122-2.114-5.961-4.525-8.010s-5.47-3.175-8.634-3.177v0z"></path>
</symbol>
<symbol id="icon-Icon-Close" viewBox="0 0 32 32">
<path  d="M26.414 7l-19.414 19.414-1.414-1.414 19.414-19.414 1.414 1.414z"></path>
<path  d="M7 5.586l19.414 19.414-1.414 1.414-19.414-19.414 1.414-1.414z"></path>
</symbol>
</defs>
</svg>
